<svg xmlns="http://www.w3.org/2000/svg" width="136" height="88" viewBox="0 0 136 88"><path d="M97.221.475l-21.405 22.5-9.707-.268-1.128 3.292 7.754.214-20.948 22.02 8.796-25.679c-23.029.251-41.035 2.39-51.112 5.846-14.521 4.98-12.912 11.717 18.134 16.941.728 4.753 8.169 7.117 10.901.833l3.236.173 1.282-3.742-4.582-.245c-1.313-3.884-7.197-5.381-10.183-.865-20.907-1.889-21.615-8.561-9.975-11.367 12.698-3.062 24.527-3.474 35.63-3.739l-12.998 37.945 35.05-38.031 6.664.184-7.611 22.219h5.681l7.558-22.064c15.469-.237 37.13 2.831 37.958 6.977h-18.474l-1.151 3.359h20.105c-2.495 5.564-20.386 7.05-38.182 7.819l-1.372 3.909c29.512-1.383 48.628-5.667 48.301-12.666-.284-6.064-12.633-11.765-46.058-12.689zm-10.548 14.21l-2.915 8.509-4.805-.133z" fill="#fff"/><path d="M128.593 86.408v1.182h-2.197v-13.33h2.197v7.48q0 .137-.068 1.846.4-1.152 1.152-2.48l3.135-5.547v-1.299h2.197v13.33h-2.197v-6.914q0-.098.068-2.295-.42 1.143-1.172 2.49zm-10.742-.068q-2.314-.244-3.438-1.719-1.113-1.475-1.113-3.633 0-2.471 1.24-3.887t3.311-1.611v-1.65h1.855v1.65q2.197.234 3.369 1.68 1.182 1.445 1.182 3.74 0 4.736-4.551 5.43v1.66h-1.855zm0-9.248q-2.383.566-2.383 3.896 0 3.154 2.383 3.75zm1.855 7.646q2.383-.576 2.383-3.896 0-3.154-2.383-3.75zm-14.941 1.67v1.182h-2.197v-13.33h2.197v7.48q0 .137-.068 1.846.4-1.152 1.152-2.48l3.135-5.547v-1.299h2.197v13.33h-2.197v-6.914q0-.098.068-2.295-.42 1.143-1.172 2.49zm-16.543-12.148h3.271l2.656 9.609 2.725-9.609h3.135v13.33h-2.07v-11.377l-3.164 11.377h-1.602l-3.105-11.387v11.387h-1.846zm-9.824 9.473l-3.877-9.473h2.256l2.549 6.787 2.207-6.787h1.992l-3.398 10.078q-.635 1.885-1.318 2.568-.684.684-2.031.684h-.908v-1.904h.908q.273 0 .674-.186.41-.186.781-1.279zm-4.941-9.473h-4.014q-2.178 0-3.213.986-1.035.986-1.035 2.832 0 2.461 2.041 3.486l-2.529 6.025h2.393l2.08-5.566h2.07v5.566h2.207zm-2.207 1.709v4.346h-1.689q-1.133 0-1.67-.625-.527-.625-.527-1.631 0-2.09 2.178-2.09zm-14.766 10.439v1.182h-2.197v-13.33h2.197v7.48q0 .137-.068 1.846.4-1.152 1.152-2.48l3.135-5.547v-1.299h2.197v13.33h-2.197v-6.914q0-.098.068-2.295-.42 1.143-1.172 2.49zm-13.096-12.148h2.207v5.527h3.926v-5.527h2.207v13.33h-2.207v-5.938h-3.926v5.938h-2.207zm-12.08 7.256v-1.66h3.936q-.176-4.014-2.607-4.014-1.797 0-2.168 2.432l-1.982-.615q.84-3.643 4.16-3.643 2.5 0 3.691 1.904 1.191 1.895 1.191 4.99 0 3.203-1.201 5.068-1.191 1.855-3.613 1.855-3.564 0-4.307-4.063l2.012-.459q.234 1.367.732 2.031.508.664 1.455.664 2.539 0 2.666-4.492zm-11.133-7.256h8.135v1.875h-2.979v11.455h-2.207v-11.455h-2.949zm-5.303 0h2.471l3.574 13.33h-2.236l-.84-3.34h-3.896l-.82 3.34h-2.109zm2.529 8.252l-1.514-6.104-1.504 6.104zm-14.004 3.896v1.182h-2.197v-13.33h2.197v7.48q0 .137-.068 1.846.4-1.152 1.152-2.48l3.135-5.547v-1.299h2.197v13.33h-2.197v-6.914q0-.098.068-2.295-.42 1.143-1.172 2.49z" fill="#fff"/></svg>